<?xml version="1.0" standalone="yes"?>
<svg xmlns="http://www.w3.org/2000/svg" width="512" height="512">
<path style="fill:#000000; stroke:none;" d="M0 0L0 512L512 512L512 0L0 0z"/>
<path style="fill:#0a5078; stroke:none;" d="M160 96C175.533 91.2753 160.769 71.7263 173.044 65.179C177.665 62.7145 184.924 64 190 64L228 64C233.208 64 240.55 62.6835 244.772 66.4337C254.191 74.8011 241.17 90.6928 256 96C256 79.2394 260.179 57.103 249.239 43.0394C237.992 28.5807 218.106 32 202 32C194.71 32 186.957 31.1384 180 33.7106C174.03 35.918 169.088 39.8114 165.443 45.0038C155.935 58.548 160 80.245 160 96z"/>
<path style="fill:#00a0c8; stroke:none;" d="M352 56C355.924 56.0026 360.463 55.5602 363.891 57.858C369.498 61.6166 367.929 68.7618 361.985 71.1065C358.886 72.3288 355.264 71.9979 352 72L352 120C355.264 120.002 358.886 119.671 361.985 120.894C367.929 123.238 369.498 130.383 363.891 134.142C360.463 136.44 355.924 135.997 352 136L352 184C355.924 184.003 360.463 183.56 363.891 185.858C369.498 189.617 367.929 196.762 361.985 199.106C358.886 200.329 355.264 199.998 352 200L352 248C355.924 248.003 360.463 247.56 363.891 249.858C369.498 253.617 367.929 260.762 361.985 263.106C358.886 264.329 355.264 263.998 352 264L352 312C355.924 312.003 360.463 311.56 363.891 313.858C369.498 317.617 367.929 324.762 361.985 327.106C358.886 328.329 355.264 327.998 352 328L352 336C361.289 336 369.794 336.517 374.543 346C378.393 353.687 376 366.568 376 375L376 442C376 454.728 379.587 476.649 362 479C367.216 481.189 374.381 480 380 480L416 480L416 32L374 32C367.148 32 360.311 31.3587 355.394 37.1049C350.913 42.3424 352 49.5968 352 56z"/>
<path style="fill:#0082aa; stroke:none;" d="M416 32L416 480C423.529 479.823 430.504 476.127 431.786 468C433.197 459.054 432 449.052 432 440L432 386L432 114L432 67C432 59.4074 433.311 50.4188 431.606 43C429.857 35.3927 423.153 32.1682 416 32z"/>
<path style="fill:#0a5078; stroke:none;" d="M352 56L352 72C355.805 71.9996 360.427 72.5805 363.891 70.6821C368.599 68.1024 369.169 61.0583 364.772 57.858C361.274 55.3125 356.073 56.0005 352 56z"/>
<path style="fill:#cab399; stroke:none;" d="M173.667 64.3333C173.222 64.7779 174.278 64.7221 174.333 64.6667C174.778 64.2224 173.722 64.2777 173.667 64.3333z"/>
<path style="fill:#f0c8a0; stroke:none;" d="M160 96C160 110.861 156.843 128.581 166.9 140.91C170.527 145.356 175.503 148.871 181 150.557C188.064 152.724 195.703 152 203 152C218.842 152 238.061 154.859 249.239 140.91C259.139 128.556 256 110.793 256 96C240.747 90.7673 255.061 72.2581 243.775 65.4568C239.264 62.7378 232.047 64 227 64L188 64C182.84 64 174.744 62.6615 170.703 66.7029C162.173 75.2328 174.721 90.9497 160 96z"/>
<path style="fill:#8c948e; stroke:none;" d="M242 64L243 65L242 64z"/>
<path style="fill:#90968f; stroke:none;" d="M171 65L172 66L171 65z"/>
<path style="fill:#8e958f; stroke:none;" d="M244 65L245 66L244 65z"/>
<path style="fill:#90968f; stroke:none;" d="M169 67L170 68L169 67z"/>
<path style="fill:#8d958f; stroke:none;" d="M246 67L247 68L246 67z"/>
<path style="fill:#cab49a; stroke:none;" d="M168.333 69.6667C168.278 69.7221 168.222 70.7779 168.667 70.3333C168.722 70.2776 168.778 69.2223 168.333 69.6667z"/>
<path style="fill:#c9b399; stroke:none;" d="M247.333 69.6667C247.278 69.7221 247.222 70.7779 247.667 70.3333C247.722 70.2776 247.778 69.2223 247.333 69.6667z"/>
<path style="fill:#d2aa82; stroke:none;" d="M160 112L160 80C138.817 80.4981 138.817 111.502 160 112M256 80L256 112C277.183 111.502 277.183 80.4981 256 80z"/>
<path style="fill:#71858a; stroke:none;" d="M167 90L168 91L167 90z"/>
<path style="fill:#6e848a; stroke:none;" d="M248 90L249 91L248 90z"/>
<path style="fill:#6e8389; stroke:none;" d="M166 92L167 93L166 92z"/>
<path style="fill:#6c8389; stroke:none;" d="M249 92L250 93L249 92z"/>
<path style="fill:#6e8389; stroke:none;" d="M164 94L165 95L164 94z"/>
<path style="fill:#6d8389; stroke:none;" d="M251 94L252 95L251 94z"/>
<path style="fill:#71858a; stroke:none;" d="M162 95L163 96L162 95z"/>
<path style="fill:#31657f; stroke:none;" d="M253.667 95.3333C253.222 95.778 254.278 95.7221 254.333 95.6667C254.778 95.2224 253.722 95.2777 253.667 95.3333z"/>
<path style="fill:#0a5078; stroke:none;" d="M352 120L352 136C355.805 136 360.427 136.58 363.891 134.682C368.599 132.102 369.169 125.058 364.772 121.858C361.274 119.312 356.073 120 352 120z"/>
<path style="fill:#ffffff; stroke:none;" d="M164 137L165 138L164 137M251 137L252 138L251 137M167 141L168 142L167 141M170 144L171 145L170 144M245 144L246 145L245 144M174 147L175 148L174 147M241 147L242 148L241 147z"/>
<path style="fill:#d2aa82; stroke:none;" d="M184 151C184 161.059 182.407 173.34 188.638 181.996C198.776 196.081 221.184 194.583 229.164 179C233.472 170.588 232 160.142 232 151C222.341 152.221 212.734 152 203 152C196.654 152 190.208 152.478 184 151z"/>
<path style="fill:#a00028; stroke:none;" d="M96 256L144 256L144 160C138.049 160.001 132.686 160.435 127 162.356C111.789 167.494 99.9982 181.391 96.669 197C95.2306 203.744 96 211.137 96 218L96 256z"/>
<path style="fill:#c80a50; stroke:none;" d="M144 160L144 328L272 328L272 160L232 160C232 167.648 232.249 174.538 227.443 181C216.427 195.811 195.218 195.262 186.558 178C183.705 172.312 184 166.17 184 160L144 160z"/>
<path style="fill:#a00028; stroke:none;" d="M272 160L272 256L320 256L320 218C320 211.134 320.762 203.749 319.331 197C316.018 181.379 304.24 167.504 289 162.356C283.314 160.435 277.952 160.001 272 160z"/>
<path style="fill:#cf7e74; stroke:none;" d="M184 170L184 173C184.696 171.446 184.696 171.554 184 170z"/>
<path style="fill:#cc4061; stroke:none;" d="M231.333 172.667C231.278 172.722 231.222 173.778 231.667 173.333C231.722 173.278 231.778 172.222 231.333 172.667z"/>
<path style="fill:#ce636c; stroke:none;" d="M186 178L187 179L186 178z"/>
<path style="fill:#cd626b; stroke:none;" d="M229 178L230 179L229 178z"/>
<path style="fill:#cd5468; stroke:none;" d="M187 180L188 181L187 180z"/>
<path style="fill:#0a5078; stroke:none;" d="M352 184L352 200C355.805 200 360.427 200.58 363.891 198.682C368.599 196.102 369.169 189.058 364.772 185.858C361.274 183.312 356.073 184 352 184z"/>
<path style="fill:#ff0000; stroke:none;" d="M99 188L100 189L99 188z"/>
<path style="fill:#cc5066; stroke:none;" d="M195 188L196 189L195 188z"/>
<path style="fill:#cd5a69; stroke:none;" d="M220 188L221 189L220 188z"/>
<path style="fill:#cd626c; stroke:none;" d="M218 189L219 190L218 189z"/>
<path style="fill:#ce636c; stroke:none;" d="M202.667 191.333C202.222 191.778 203.278 191.722 203.333 191.667C203.778 191.222 202.722 191.278 202.667 191.333M211 191C212.248 191.685 212.548 191.749 214 192C212.752 191.315 212.452 191.251 211 191z"/>
<path style="fill:#0a5078; stroke:none;" d="M352 248L352 264C355.805 264 360.427 264.58 363.891 262.682C368.599 260.102 369.169 253.058 364.772 249.858C361.274 247.312 356.073 248 352 248z"/>
<path style="fill:#f0c8a0; stroke:none;" d="M96 256L96 328L144 328L144 256L96 256M272 256L272 328L320 328L320 256L272 256z"/>
<path style="fill:#0a5078; stroke:none;" d="M352 312L352 328C356.073 328 361.274 328.688 364.772 326.142C369.169 322.942 368.599 315.898 363.891 313.318C360.427 311.42 355.805 312 352 312z"/>
<path style="fill:#d2aa82; stroke:none;" d="M96 328L96 336L144 336L144 328L96 328z"/>
<path style="fill:#a00028; stroke:none;" d="M144 328L144 336L272 336L272 328L144 328z"/>
<path style="fill:#d2aa82; stroke:none;" d="M272 328L272 336L320 336L320 328L272 328z"/>
<path style="fill:#fab400; stroke:none;" d="M58 336.653C45.3423 340.628 48 355.731 48 366L48 448C48 457.846 45.1353 471.93 55.0154 477.991C60.9873 481.654 70.2762 480 77 480L129 480L289 480L336 480C342.545 480 351.641 481.615 357.83 479.297C369.532 474.915 368 459.896 368 450L368 368C368 358.3 370.217 343.974 359.985 338.442C352.729 334.52 342.937 336 335 336L282 336L127 336L81 336C73.9006 336 64.8215 334.51 58 336.653z"/>
<path style="fill:#97a043; stroke:none;" d="M354.667 336.333C354.222 336.778 355.278 336.722 355.333 336.667C355.778 336.222 354.722 336.278 354.667 336.333z"/>
<path style="fill:#56936f; stroke:none;" d="M356 336L357 337L356 336z"/>
<path style="fill:#0082aa; stroke:none;" d="M357 336C360.444 339.107 364.399 341.719 366.543 346C370.173 353.247 368 365.065 368 373L368 436C368 445.704 370.26 458.706 367.347 468C366.019 472.237 362.48 475.433 360 479C377.452 478.805 376 461.933 376 449L376 381C376 370.645 377.927 358.103 375.606 348C373.515 338.901 365.237 336.024 357 336z"/>
<path style="fill:#99a042; stroke:none;" d="M358 337L359 338L358 337z"/>
<path style="fill:#879d4e; stroke:none;" d="M360 338L361 339L360 338z"/>
<path style="fill:#7e9b54; stroke:none;" d="M365 343L366 344L365 343z"/>
<path style="fill:#93a046; stroke:none;" d="M366 345L367 346L366 345z"/>
<path style="fill:#559370; stroke:none;" d="M367 347L368 348L367 347z"/>
<path style="fill:#c3a925; stroke:none;" d="M367.333 348.667C367.278 348.722 367.222 349.778 367.667 349.333C367.722 349.278 367.778 348.222 367.333 348.667z"/>
<path style="fill:#be7800; stroke:none;" d="M101.044 352.742C95.8644 354.853 96.0079 360.267 96 365L96 397L96 442C96 447.478 94.4393 456.074 97.858 460.772C100.648 464.605 105.82 463.998 110 464C119.883 464.004 130.589 465.178 140 461.532C154.598 455.877 163.174 439.282 159.239 424C157.874 418.698 151.934 413.207 151.789 408C151.691 404.51 155.241 401.034 156.673 398C159.433 392.151 160.596 385.435 159.816 379C157.089 356.514 135.644 352 117 352C112.157 352 105.607 350.883 101.044 352.742z"/>
<path style="fill:#dc9600; stroke:none;" d="M132 352C133.248 352.685 133.548 352.749 135 353C133.752 352.315 133.452 352.251 132 352z"/>
<path style="fill:#be7800; stroke:none;" d="M192 380C196.662 384.663 201.264 389.397 206 393.985C208.791 396.688 211.832 399.782 216 399.782C220.168 399.782 223.209 396.688 226 393.985C230.736 389.397 235.338 384.662 240 380L240 415L240 437C240 443.574 238.068 453.96 241.318 459.891C244.1 464.969 251.858 464.909 254.682 459.867C258.076 453.806 256 442.754 256 436L256 378C256 371.68 258.593 358.083 252.772 353.858C248.883 351.036 244.389 352.458 241 355.228C234.899 360.215 229.58 366.443 224 372C221.837 374.154 218.553 378.726 215 377.793C212.251 377.071 209.921 373.913 208 372C203.003 367.024 198.145 361.867 193 357.044C189.536 353.797 184.954 350.481 180.109 353.18C173.629 356.789 176 368.824 176 375L176 441C176 447.578 173.347 462.742 183.005 463.677C193.479 464.692 192 451.705 192 445L192 380M288 368L288 448C284.267 448 279.488 447.277 276.109 449.179C270.969 452.072 270.969 459.928 276.109 462.821C279.002 464.449 282.811 463.999 286 464L306 464C309.235 463.995 312.949 464.294 315.891 462.682C320.599 460.102 321.169 453.058 316.772 449.858C313.274 447.312 308.073 448 304 448L304 368C308.073 368 313.274 368.688 316.772 366.142C321.169 362.942 320.599 355.898 315.891 353.318C312.949 351.706 309.235 352.005 306 352L286 352C282.811 352.001 279.001 351.551 276.109 353.179C270.969 356.072 270.969 363.927 276.109 366.821C279.488 368.723 284.267 368 288 368z"/>
<path style="fill:#fab400; stroke:none;" d="M112 368L112 400C118.713 400 127.691 401.549 134 398.991C146.433 393.949 147.191 376.763 135.996 370.009C129.552 366.121 119.256 368 112 368M112 416L112 448C118.713 448 127.691 449.549 134 446.991C146.433 441.949 147.191 424.763 135.996 418.009C129.552 414.121 119.256 416 112 416z"/>
<path style="fill:#dc9600; stroke:none;" d="M132 463C133.248 463.685 133.548 463.749 135 464C133.752 463.315 133.452 463.251 132 463z"/>
<path style="fill:#95a045; stroke:none;" d="M367.333 466.667C367.278 466.722 367.222 467.778 367.667 467.333C367.722 467.278 367.778 466.222 367.333 466.667z"/>
<path style="fill:#539371; stroke:none;" d="M367 468L368 469L367 468z"/>
<path style="fill:#97a043; stroke:none;" d="M366 470L367 471L366 470z"/>
<path style="fill:#849c50; stroke:none;" d="M365 472L366 473L365 472z"/>
<path style="fill:#839e51; stroke:none;" d="M360 477L361 478L360 477z"/>
</svg>
